<?xml version="1.0" encoding="utf-8"?>
<!-- Generator: Adobe Illustrator 27.5.0, SVG Export Plug-In . SVG Version: 6.00 Build 0)  -->
<svg version="1.1" xmlns="http://www.w3.org/2000/svg" xmlns:xlink="http://www.w3.org/1999/xlink" x="0px" y="0px"
	 viewBox="0 0 2500 2500" style="enable-background:new 0 0 2500 2500;" xml:space="preserve">
<g id="Background">
	<rect style="fill:#FFFFFF;" width="2500" height="2500"/>
</g>
<g id="Illustration">
	<g id="Online_prescription_systemv_1_">
		<circle style="fill:#F2E6DC;" cx="1250.166" cy="1250" r="915"/>
		<g>
			<g>
				<path style="fill:#E6D0BE;" d="M875.171,391.848c-6.82,26.778,17.184,135.247,17.184,135.247s72.967-83.771,79.787-110.549
					c6.82-26.778-9.359-54.015-36.137-60.835C909.228,348.891,881.991,365.07,875.171,391.848z"/>
				<path style="fill:#F7F1EB;" d="M804.833,872.94c-0.181,0-0.364-0.021-0.547-0.069c-1.18-0.299-1.893-1.501-1.591-2.681
					l120.632-473.629c0.301-1.182,1.496-1.895,2.681-1.591c1.18,0.299,1.893,1.501,1.591,2.681L806.967,871.28
					C806.713,872.276,805.817,872.94,804.833,872.94z"/>
				<path style="fill:#E6D0BE;" d="M979.57,502.364c-16.953,15.229-50.231,100.589-50.231,100.589s88.427-23.968,105.38-39.197
					c16.953-15.229,18.351-41.317,3.122-58.27C1022.611,488.533,996.523,487.136,979.57,502.364z"/>
				<path style="fill:#F7F1EB;" d="M856.362,670.712c-0.603,0-1.206-0.248-1.641-0.732c-0.814-0.904-0.738-2.3,0.168-3.113
					l152.335-136.843c0.9-0.81,2.3-0.741,3.114,0.168c0.814,0.904,0.738,2.3-0.168,3.113L857.835,670.148
					C857.415,670.525,856.888,670.712,856.362,670.712z"/>
				<path style="fill:#E6D0BE;" d="M800.597,570.73c8.249,23.309-4.347,121.913-4.347,121.913s-71.814-68.733-80.063-92.042
					c-8.249-23.309,3.96-48.892,27.269-57.141C766.766,535.213,792.349,547.421,800.597,570.73z"/>
				<path style="fill:#F7F1EB;" d="M826.909,781.481c-0.909,0-1.759-0.564-2.078-1.468L756.517,586.97
					c-0.407-1.15,0.194-2.409,1.341-2.814c1.156-0.405,2.411,0.196,2.814,1.341l68.315,193.042c0.407,1.15-0.194,2.409-1.341,2.814
					C827.402,781.44,827.153,781.481,826.909,781.481z"/>
			</g>
			<g>
				<path style="fill:#E6D0BE;" d="M369.733,616.331c26.969,20.645,161.157,45.922,161.157,45.922s-59.424-122.939-86.392-143.585
					c-26.969-20.646-65.568-15.519-86.214,11.449C337.638,557.086,342.764,595.685,369.733,616.331z"/>
				<path style="fill:#F7F1EB;" d="M876.981,929.401c-0.467,0-0.939-0.148-1.337-0.454l-477.01-365.165
					c-0.969-0.741-1.152-2.123-0.411-3.09c0.736-0.969,2.127-1.148,3.09-0.411l477.01,365.165c0.969,0.741,1.152,2.123,0.411,3.09
					C878.3,929.104,877.644,929.401,876.981,929.401z"/>
				<path style="fill:#E6D0BE;" d="M545.076,551.735c9.021,26.518,89.416,105.37,89.416,105.37s15.634-111.519,6.613-138.037
					c-9.021-26.518-37.83-40.701-64.348-31.681C550.24,496.408,536.056,525.218,545.076,551.735z"/>
				<path style="fill:#F7F1EB;" d="M673.323,773.458c-0.917,0-1.774-0.577-2.086-1.494l-81.059-238.282
					c-0.394-1.154,0.224-2.405,1.376-2.797c1.152-0.398,2.405,0.224,2.797,1.376l81.059,238.282
					c0.394,1.154-0.224,2.405-1.376,2.797C673.799,773.421,673.558,773.458,673.323,773.458z"/>
				<path style="fill:#E6D0BE;" d="M535.874,787.038c30.329,1.939,135.685,63.814,135.685,63.814s-112.377,47.956-142.706,46.017
					c-30.329-1.939-53.344-28.097-51.405-58.426C479.387,808.114,505.545,785.099,535.874,787.038z"/>
				<path style="fill:#F7F1EB;" d="M784.284,860.262c-0.047,0-0.095-0.002-0.142-0.004l-251.179-16.056
					c-1.216-0.078-2.138-1.126-2.061-2.34c0.078-1.217,1.141-2.121,2.341-2.061l251.179,16.056c1.216,0.077,2.138,1.126,2.061,2.34
					C786.406,859.364,785.438,860.262,784.284,860.262z"/>
			</g>
		</g>
		<g>
			<rect x="751.841" y="653.966" style="fill:#D3BBA3;" width="1362.577" height="85.884"/>
			<path style="fill:#BC8271;" d="M2114.418,1623.956H751.84c-1.219,0-2.205-0.986-2.205-2.205V653.965
				c0-1.219,0.986-2.205,2.205-2.205h1362.578c1.219,0,2.205,0.986,2.205,2.205v967.786
				C2116.623,1622.97,2115.637,1623.956,2114.418,1623.956z M754.045,1619.547h1358.169V656.17H754.045V1619.547z"/>
			
				<ellipse transform="matrix(0.1602 -0.9871 0.9871 0.1602 -9.1319 1384.2817)" style="fill:#F7F1EB;" cx="808.948" cy="697.508" rx="19.534" ry="19.534"/>
			
				<ellipse transform="matrix(0.7071 -0.7071 0.7071 0.7071 -237.7912 820.9363)" style="fill:#F7F1EB;" cx="872.062" cy="697.508" rx="19.534" ry="19.534"/>
			
				<ellipse transform="matrix(0.1602 -0.9871 0.9871 0.1602 96.8769 1508.8801)" style="fill:#F7F1EB;" cx="935.176" cy="697.508" rx="19.534" ry="19.534"/>
			<rect x="775.524" y="739.85" style="fill:#E6D0BE;" width="1316.211" height="853.828"/>
		</g>
		<g>
			<g>
				
					<ellipse transform="matrix(0.937 -0.3492 0.3492 0.937 -235.418 368.8221)" style="fill:#F2E6DC;" cx="905.21" cy="837.337" rx="76.135" ry="76.135"/>
				<path style="fill:#FFFFFF;" d="M898.906,921.187c-20.063,0-40.124-7.637-55.396-22.91c-30.544-30.544-30.544-80.243,0-110.788
					c30.542-30.544,80.243-30.544,110.79,0c30.544,30.544,30.544,80.243,0,110.788C939.028,913.55,918.967,921.187,898.906,921.187z
					 M898.906,768.988c-18.933,0-37.865,7.207-52.278,21.62c-28.824,28.826-28.824,75.726,0,104.552
					c28.824,28.824,75.726,28.828,104.555,0c28.824-28.826,28.824-75.726,0-104.552
					C936.769,776.195,917.836,768.988,898.906,768.988z"/>
				<path style="fill:#8B865C;" d="M902.383,878.204c-0.579,0-1.141-0.228-1.559-0.646l-26.212-26.214
					c-0.861-0.861-0.861-2.257,0-3.118c0.861-0.861,2.257-0.861,3.118,0l23.962,23.964l24.899-54.774
					c0.502-1.107,1.8-1.604,2.92-1.094c1.109,0.504,1.598,1.811,1.094,2.92l-26.214,57.67c-0.299,0.657-0.902,1.128-1.613,1.257
					C902.646,878.193,902.515,878.204,902.383,878.204z"/>
			</g>
		</g>
		<g>
			<g>
				<g>
					<polygon style="fill:#FFFFFF;" points="1884.862,1521.24 1884.862,901.874 1884.862,666.238 1770.112,612.667 
						1717.834,509.802 1091.637,509.802 1091.637,1521.24 					"/>
				</g>
				<path style="fill:#D3BBA3;" d="M1792.136,1144.52h-333.479c-1.219,0-2.205-0.986-2.205-2.205c0-1.219,0.986-2.205,2.205-2.205
					h333.479c1.219,0,2.205,0.986,2.205,2.205C1794.34,1143.534,1793.354,1144.52,1792.136,1144.52z"/>
				<path style="fill:#D3BBA3;" d="M1385.924,1144.52h-191.109c-1.219,0-2.205-0.986-2.205-2.205c0-1.219,0.986-2.205,2.205-2.205
					h191.109c1.219,0,2.205,0.986,2.205,2.205C1388.128,1143.534,1387.142,1144.52,1385.924,1144.52z"/>
				<path style="fill:#D3BBA3;" d="M1503.285,1250.663h-308.47c-1.219,0-2.205-0.986-2.205-2.205c0-1.219,0.986-2.205,2.205-2.205
					h308.47c1.219,0,2.205,0.986,2.205,2.205C1505.49,1249.677,1504.504,1250.663,1503.285,1250.663z"/>
				<path style="fill:#E6D0BE;" d="M1705.461,1357.772c-1.204,0-2.188-0.967-2.205-2.172c-0.017-1.219,0.956-2.22,2.173-2.237
					l136.699-1.94c0.011,0,0.021,0,0.032,0c1.204,0,2.188,0.967,2.205,2.172c0.017,1.219-0.956,2.22-2.172,2.237l-136.699,1.94
					C1705.482,1357.772,1705.472,1357.772,1705.461,1357.772z"/>
				<path style="fill:#D3BBA3;" d="M1194.815,1356.807c-1.214,0-2.201-0.982-2.205-2.198s0.98-2.207,2.198-2.211l290.164-0.975
					c0.002,0,0.004,0,0.006,0c1.214,0,2.201,0.982,2.205,2.198c0.004,1.217-0.98,2.207-2.198,2.211l-290.164,0.975
					C1194.819,1356.807,1194.817,1356.807,1194.815,1356.807z"/>
				<path style="fill:#D3BBA3;" d="M1794.756,829.888h-333.479c-1.219,0-2.205-0.986-2.205-2.205c0-1.219,0.986-2.205,2.205-2.205
					h333.479c1.219,0,2.205,0.986,2.205,2.205C1796.961,828.901,1795.975,829.888,1794.756,829.888z"/>
				<path style="fill:#D3BBA3;" d="M1388.544,829.888h-191.109c-1.219,0-2.205-0.986-2.205-2.205c0-1.219,0.986-2.205,2.205-2.205
					h191.109c1.219,0,2.205,0.986,2.205,2.205C1390.749,828.901,1389.763,829.888,1388.544,829.888z"/>
				<path style="fill:#D3BBA3;" d="M1794.756,936.031h-167.611c-1.219,0-2.205-0.986-2.205-2.205c0-1.219,0.986-2.205,2.205-2.205
					h167.611c1.219,0,2.205,0.986,2.205,2.205C1796.961,935.045,1795.975,936.031,1794.756,936.031z"/>
				<path style="fill:#D3BBA3;" d="M1554.411,936.031h-356.976c-1.219,0-2.205-0.986-2.205-2.205c0-1.219,0.986-2.205,2.205-2.205
					h356.976c1.219,0,2.205,0.986,2.205,2.205C1556.616,935.045,1555.63,936.031,1554.411,936.031z"/>
				<path style="fill:#D3BBA3;" d="M1579.827,1042.175h-382.392c-1.219,0-2.205-0.986-2.205-2.205c0-1.219,0.986-2.205,2.205-2.205
					h382.392c1.219,0,2.205,0.986,2.205,2.205C1582.032,1041.188,1581.046,1042.175,1579.827,1042.175z"/>
				<path style="fill:#D3BBA3;" d="M1693.334,627.337H1583.04c-1.219,0-2.205-0.986-2.205-2.205c0-1.219,0.986-2.205,2.205-2.205
					h110.295c1.219,0,2.205,0.986,2.205,2.205C1695.539,626.351,1694.553,627.337,1693.334,627.337z"/>
				<path style="fill:#D3BBA3;" d="M1552.226,627.337H1195.25c-1.219,0-2.205-0.986-2.205-2.205c0-1.219,0.986-2.205,2.205-2.205
					h356.976c1.219,0,2.205,0.986,2.205,2.205C1554.431,626.351,1553.445,627.337,1552.226,627.337z"/>
				<path style="fill:#D3BBA3;" d="M1683.473,733.481H1195.25c-1.219,0-2.205-0.986-2.205-2.205s0.986-2.205,2.205-2.205h488.223
					c1.219,0,2.205,0.986,2.205,2.205S1684.692,733.481,1683.473,733.481z"/>
				<polygon style="fill:#E6D0BE;" points="1717.834,666.238 1884.862,666.238 1717.834,509.877 				"/>
			</g>
			<path style="fill:#363E44;" d="M1902.84,1371.048c-0.002,0-0.004,0-0.004,0c-1.219-0.002-2.203-0.993-2.201-2.211l2.127-877.428
				h-829.031v346.083c0,1.219-0.986,2.205-2.205,2.205c-1.219,0-2.205-0.986-2.205-2.205V486.999h837.861l-0.004,2.209
				l-2.134,879.641C1905.042,1370.064,1904.054,1371.048,1902.84,1371.048z"/>
			<path style="fill:#D3BBA3;" d="M1759.858,1349.87c-1.725,0-3.464-0.213-5.2-0.678c-9.368-2.504-14.312-10.335-16.913-18.203
				c-8.165,0.668-17.311-2.98-20.278-11.263c-0.411-1.146,0.185-2.407,1.333-2.818c1.137-0.418,2.405,0.181,2.818,1.333
				c2.071,5.777,8.649,8.643,14.911,8.404c-1.264-5.396-1.57-10.329-1.632-12.981c-0.683-28.891,7.82-58.008,23.943-81.985
				c6.804-10.122,17.992-19.365,28.983-14.938c12.101,4.87,12.508,21.086,9.179,33.492c-6.337,23.614-18.106,45.899-34.037,64.446
				c-5.361,6.242-12.01,12.93-20.812,15.492c2.528,7.129,6.884,12.955,13.647,14.764c8.283,2.205,16.945-2.818,21.852-8.789
				c0.312-0.379,0.614-0.766,0.909-1.156c-5.928-8.021-7.781-19.073-4.285-28.609c1.624-4.433,5.473-8.35,9.362-9.523
				c2.582-0.779,5.045-0.388,7.118,1.137c3.785,2.784,4.504,7.997,2.136,15.492c-2.185,6.909-4.61,14.575-8.804,21.241
				c0.749,0.779,1.552,1.511,2.407,2.183c8.47,6.668,21.299,6.899,29.841,0.549c0.601-0.448,1.176-0.924,1.724-1.43
				c-1.701-3.382-2.605-7.306-2.549-11.412c0.101-7.622,3.497-14.525,9.08-18.465c0.536-0.379,1.219-0.493,1.847-0.325
				c0.635,0.172,1.158,0.618,1.43,1.214c4.33,9.528,2.353,21.45-4.302,29.558c0.904,1.219,1.964,2.293,3.161,3.187
				c4.345,3.24,10.484,4.082,16.42,2.233c5.934-1.845,10.516-6.016,12.256-11.153c0.392-1.154,1.643-1.776,2.795-1.382
				c1.154,0.39,1.772,1.643,1.382,2.795c-2.19,6.472-7.844,11.687-15.124,13.952c-7.28,2.259-14.891,1.176-20.369-2.911
				c-1.35-1.01-2.564-2.196-3.624-3.527c-0.482,0.42-0.982,0.823-1.496,1.206c-10.083,7.502-25.22,7.232-35.197-0.622
				c-0.792-0.624-1.546-1.287-2.261-1.992c-0.146,0.19-0.297,0.375-0.45,0.56C1776.243,1344.803,1768.253,1349.87,1759.858,1349.87z
				 M1824.896,1311.686c-3.09,3.24-4.909,7.902-4.978,12.99c-0.037,2.728,0.433,5.346,1.339,7.7
				C1825.436,1326.446,1826.902,1318.587,1824.896,1311.686z M1786.161,1300.879c-0.396,0-0.812,0.067-1.251,0.198
				c-2.562,0.773-5.355,3.703-6.494,6.817c-2.805,7.65-1.587,16.435,2.756,23.142c3.38-5.811,5.475-12.43,7.517-18.883
				c1.735-5.495,1.552-9.065-0.547-10.609C1787.539,1301.101,1786.882,1300.879,1786.161,1300.879z M1781.984,1220.018
				c-7.273,0-14.588,6.836-19.484,14.118c-15.619,23.23-23.857,51.436-23.194,79.423c0.095,4.074,0.594,8.341,1.589,12.383
				c7.71-2.237,13.784-8.386,18.724-14.137c15.505-18.05,26.957-39.736,33.124-62.715c2.304-8.589,3.514-24.203-6.565-28.26
				C1784.793,1220.272,1783.387,1220.018,1781.984,1220.018z"/>
			<g>
				<rect x="1531.343" y="1185.326" style="fill:#D87355;" width="21.417" height="211.496"/>
				<path style="fill:#D87355;" d="M1532.347,1185.492v18.071h46.746c16.322,0,29.553,13.231,29.553,29.553v6.902
					c0,15.352-12.445,27.797-27.797,27.797h-48.503v18.071h49.883c24.569,0,44.487-19.917,44.487-44.487v-9.726
					c0-25.505-20.676-46.181-46.181-46.181H1532.347z"/>
				<polygon style="fill:#D87355;" points="1692.583,1455.05 1693.073,1454.767 1586.973,1270.996 1569.193,1281.261 
					1669.53,1455.05 				"/>
				<polygon style="fill:#D87355;" points="1653.886,1291.892 1574.809,1455.05 1597.61,1455.05 1676.687,1291.892 				"/>
			</g>
		</g>
		<g>
			
				<rect x="1733.757" y="1478.567" transform="matrix(-1 -1.224647e-16 1.224647e-16 -1 3755.2854 3492.1692)" style="fill:#F7F1EB;" width="287.771" height="535.036"/>
			<g>
				<path style="fill:#D3BBA3;" d="M1931.765,1805.466l46.818-39.896c13.136-11.194,33.043-9.605,44.237,3.531
					c11.194,13.136,9.605,33.043-3.531,44.237l-46.818,39.896L1931.765,1805.466z"/>
				<path style="fill:#E6D0BE;" d="M1972.47,1853.234l-46.818,39.896c-13.136,11.194-33.043,9.605-44.237-3.531
					c-11.194-13.136-9.605-33.043,3.531-44.237l46.818-39.896L1972.47,1853.234z"/>
			</g>
			<g>
				<path style="fill:#D87355;" d="M1855.312,1805.867l-29.317-54.075c-8.226-15.173-27.37-20.856-42.542-12.63
					s-20.856,27.37-12.63,42.542l29.317,54.075L1855.312,1805.867z"/>
				<path style="fill:#EFBC73;" d="M1800.14,1835.779l29.317,54.075c8.226,15.172,27.37,20.856,42.542,12.63
					c15.172-8.226,20.856-27.37,12.63-42.542l-29.317-54.075L1800.14,1835.779z"/>
				<path style="fill:#B77250;" d="M1793.499,1735.769c-3.433,0.536-6.829,1.648-10.046,3.392
					c-15.173,8.226-20.856,27.37-12.63,42.542l29.317,54.075l18.37-9.96l-29.317-54.075
					C1782.711,1759.789,1784.871,1745.371,1793.499,1735.769z"/>
				<path style="fill:#E0AA63;" d="M1847.827,1879.895l-29.318-54.076l-18.37,9.96l29.317,54.076
					c8.226,15.172,27.37,20.856,42.542,12.63c3.217-1.744,6.003-3.983,8.325-6.567
					C1867.569,1897.908,1854.308,1891.85,1847.827,1879.895z"/>
			</g>
			<g>
				<path style="fill:#D87355;" d="M1768.398,1614.722l-37.864,42.086c-10.624,11.808-9.655,30.162,2.154,40.786
					c11.808,10.624,30.162,9.655,40.786-2.154l37.864-42.085L1768.398,1614.722z"/>
				<path style="fill:#EFBC73;" d="M1811.338,1653.354l37.864-42.086c10.624-11.808,9.655-30.162-2.154-40.786
					c-11.808-10.624-30.162-9.655-40.786,2.154l-37.864,42.085L1811.338,1653.354z"/>
				<path style="fill:#B77250;" d="M1726.652,1689.926c1.522,2.812,3.533,5.414,6.037,7.667
					c11.808,10.624,30.162,9.655,40.786-2.154l37.864-42.085l-14.297-12.863l-37.863,42.086
					C1750.806,1691.881,1737.637,1694.45,1726.652,1689.926z"/>
				<path style="fill:#E0AA63;" d="M1834.905,1598.405l-37.864,42.086l14.297,12.863l37.864-42.086
					c10.624-11.808,9.654-30.161-2.154-40.785c-2.504-2.253-5.304-3.979-8.26-5.196
					C1844.443,1575.735,1843.275,1589.101,1834.905,1598.405z"/>
			</g>
			<g>
				<path style="fill:#D87355;" d="M1823.645,1899.404l38.131,48.267c10.699,13.543,8.372,33.377-5.171,44.075
					c-13.543,10.699-33.377,8.372-44.075-5.171l-38.131-48.267L1823.645,1899.404z"/>
				<path style="fill:#EFBC73;" d="M1774.398,1938.309l-38.131-48.267c-10.699-13.543-8.372-33.377,5.171-44.075
					s33.377-8.372,44.075,5.171l38.131,48.267L1774.398,1938.309z"/>
				<path style="fill:#B77250;" d="M1863.683,1983.853c-1.846,2.943-4.207,5.625-7.079,7.894
					c-13.543,10.699-33.377,8.372-44.075-5.171l-38.131-48.267l16.397-12.954l38.131,48.267
					C1837.356,1984.293,1851.457,1987.995,1863.683,1983.853z"/>
				<path style="fill:#E0AA63;" d="M1752.664,1877.088l38.131,48.267l-16.397,12.954l-38.131-48.267
					c-10.699-13.543-8.372-33.376,5.171-44.075c2.872-2.269,6.028-3.945,9.318-5.06
					C1743.897,1851.843,1744.234,1866.417,1752.664,1877.088z"/>
			</g>
			<g>
				<path style="fill:#D87355;" d="M1924.947,1911.745l-42.02,44.922c-11.79,12.604-11.124,32.563,1.481,44.353
					c12.604,11.79,32.563,11.124,44.353-1.481l42.02-44.922L1924.947,1911.745z"/>
				<path style="fill:#EFBC73;" d="M1970.781,1954.617l42.02-44.922c11.79-12.604,11.124-32.563-1.481-44.353
					c-12.604-11.79-32.563-11.124-44.353,1.481l-42.02,44.922L1970.781,1954.617z"/>
				<path style="fill:#B77250;" d="M1878.011,1992.563c1.594,3.087,3.724,5.956,6.397,8.456
					c12.604,11.79,32.563,11.124,44.353-1.481l42.02-44.922l-15.261-14.275l-42.02,44.922
					C1904.211,1995.196,1889.85,1997.71,1878.011,1992.563z"/>
				<path style="fill:#E0AA63;" d="M1997.54,1895.42l-42.02,44.922l15.261,14.275l42.02-44.922
					c11.79-12.604,11.123-32.563-1.481-44.353c-2.673-2.5-5.678-4.434-8.864-5.819
					C2008.38,1870.993,2006.829,1885.489,1997.54,1895.42z"/>
			</g>
			<g>
				<path style="fill:#D87355;" d="M1916.185,1753.162l54.263,28.968c15.225,8.128,21.032,27.235,12.904,42.46
					s-27.235,21.032-42.46,12.904l-54.263-28.968L1916.185,1753.162z"/>
				<path style="fill:#EFBC73;" d="M1886.629,1808.526l-54.263-28.968c-15.225-8.128-21.032-27.235-12.904-42.46
					c8.128-15.225,27.235-21.032,42.46-12.904l54.263,28.968L1886.629,1808.526z"/>
				<path style="fill:#B77250;" d="M1986.679,1814.522c-0.513,3.436-1.604,6.839-3.327,10.067
					c-8.128,15.225-27.235,21.032-42.46,12.904l-54.263-28.968l9.841-18.434l54.263,28.968
					C1962.729,1825.464,1977.133,1823.212,1986.679,1814.522z"/>
				<path style="fill:#E0AA63;" d="M1842.206,1761.124l54.264,28.968l-9.841,18.434l-54.263-28.968
					c-15.225-8.128-21.032-27.235-12.904-42.46c1.724-3.228,3.945-6.028,6.513-8.367
					C1824.067,1741.499,1830.21,1754.719,1842.206,1761.124z"/>
			</g>
			<g>
				<path style="fill:#D3BBA3;" d="M1905.115,1698.313l45.086,41.844c12.65,11.741,13.394,31.697,1.654,44.347
					s-31.697,13.394-44.347,1.654l-45.086-41.844L1905.115,1698.313z"/>
				<path style="fill:#E6D0BE;" d="M1862.422,1744.314l-45.086-41.844c-12.65-11.741-13.394-31.697-1.654-44.347
					c11.741-12.65,31.697-13.394,44.347-1.654l45.086,41.844L1862.422,1744.314z"/>
			</g>
			<g>
				<path style="fill:#D3BBA3;" d="M1929.707,1646.5l-34.148-48.241c-9.581-13.536-6.346-32.45,7.19-42.031
					s32.449-6.346,42.031,7.19l34.148,48.241L1929.707,1646.5z"/>
				<path style="fill:#E6D0BE;" d="M1978.928,1611.659l34.148,48.242c9.581,13.536,6.346,32.449-7.19,42.031
					c-13.536,9.581-32.45,6.346-42.031-7.19l-34.148-48.242L1978.928,1611.659z"/>
			</g>
			<g>
				<path style="fill:#D87355;" d="M1917.994,1681.593l-48.65-37.641c-13.65-10.561-16.177-30.371-5.616-44.021
					s30.371-16.177,44.021-5.616l48.65,37.641L1917.994,1681.593z"/>
				<path style="fill:#EFBC73;" d="M1956.398,1631.956l48.65,37.641c13.65,10.561,16.177,30.371,5.616,44.021
					c-10.561,13.65-30.371,16.177-44.021,5.616l-48.65-37.641L1956.398,1631.956z"/>
				<path style="fill:#B77250;" d="M1858.762,1609.3c1.081-3.301,2.726-6.474,4.965-9.369c10.561-13.65,30.371-16.177,44.021-5.616
					l48.65,37.641l-12.787,16.527l-48.65-37.641C1884.206,1602.52,1869.629,1602.33,1858.762,1609.3z"/>
				<path style="fill:#E0AA63;" d="M1992.261,1686.124l-48.65-37.641l12.787-16.527l48.65,37.641
					c13.65,10.561,16.177,30.37,5.616,44.021c-2.24,2.894-4.898,5.283-7.822,7.159
					C2006.86,1708.509,2003.016,1694.446,1992.261,1686.124z"/>
			</g>
			
				<rect x="1713.859" y="1696.242" transform="matrix(-1 -1.224647e-16 1.224647e-16 -1 3682.4182 3499.3508)" style="fill:#FFFFFF;" width="254.699" height="106.867"/>
			<path style="fill:#363E44;" d="M2035.463,2026.99H1711.52v-582.843h323.943V2026.99z M1715.929,2022.581h315.123v-574.024
				h-315.123V2022.581z"/>
			<g>
				
					<rect x="1706.471" y="1435.222" transform="matrix(-1 -1.224647e-16 1.224647e-16 -1 3745.7424 2981.2354)" style="fill:#EFBC73;" width="332.801" height="110.792"/>
				
					<rect x="2007.224" y="1445.164" transform="matrix(-1 -1.224647e-16 1.224647e-16 -1 4023.6929 2983.011)" style="fill:#E0AA63;" width="9.245" height="92.682"/>
				
					<rect x="1980.723" y="1445.164" transform="matrix(-1 -1.224647e-16 1.224647e-16 -1 3970.6914 2983.011)" style="fill:#E0AA63;" width="9.245" height="92.682"/>
				
					<rect x="1954.838" y="1445.164" transform="matrix(-1 -1.224647e-16 1.224647e-16 -1 3918.9199 2983.011)" style="fill:#E0AA63;" width="9.245" height="92.682"/>
				
					<rect x="1928.337" y="1445.164" transform="matrix(-1 -1.224647e-16 1.224647e-16 -1 3865.9182 2983.011)" style="fill:#E0AA63;" width="9.244" height="92.682"/>
				
					<rect x="1904.919" y="1445.164" transform="matrix(-1 -1.224647e-16 1.224647e-16 -1 3819.0818 2983.011)" style="fill:#E0AA63;" width="9.245" height="92.682"/>
				
					<rect x="1878.418" y="1445.164" transform="matrix(-1 -1.224647e-16 1.224647e-16 -1 3766.0803 2983.011)" style="fill:#E0AA63;" width="9.245" height="92.682"/>
				
					<rect x="1853.152" y="1445.875" transform="matrix(-1 -1.224647e-16 1.224647e-16 -1 3715.5486 2984.4314)" style="fill:#E0AA63;" width="9.245" height="92.682"/>
				
					<rect x="1826.651" y="1445.875" transform="matrix(-1 -1.224647e-16 1.224647e-16 -1 3662.5469 2984.4314)" style="fill:#E0AA63;" width="9.244" height="92.682"/>
				
					<rect x="1800.766" y="1445.875" transform="matrix(-1 -1.224647e-16 1.224647e-16 -1 3610.7754 2984.4314)" style="fill:#E0AA63;" width="9.244" height="92.682"/>
				
					<rect x="1774.265" y="1445.875" transform="matrix(-1 -1.224647e-16 1.224647e-16 -1 3557.7737 2984.4314)" style="fill:#E0AA63;" width="9.245" height="92.682"/>
				
					<rect x="1750.847" y="1445.875" transform="matrix(-1 -1.224647e-16 1.224647e-16 -1 3510.9375 2984.4314)" style="fill:#E0AA63;" width="9.245" height="92.682"/>
				
					<rect x="1724.346" y="1445.875" transform="matrix(-1 -1.224647e-16 1.224647e-16 -1 3457.9358 2984.4314)" style="fill:#E0AA63;" width="9.244" height="92.682"/>
			</g>
		</g>
		<g>
			<g>
				<g>
					<path style="fill:#84524D;" d="M667.107,2090.532c-1.219,0-2.205-0.986-2.205-2.205v-174.525h-30.557v174.525
						c0,1.219-0.986,2.205-2.205,2.205s-2.205-0.986-2.205-2.205v-176.73c0-1.219,0.986-2.205,2.205-2.205h34.967
						c1.219,0,2.205,0.986,2.205,2.205v176.73C669.312,2089.546,668.326,2090.532,667.107,2090.532z"/>
					<g>
						<path style="fill:#84524D;" d="M649.068,2143.607c-17.916,0-35.197-1.628-51.365-4.84c-1.195-0.237-1.972-1.397-1.733-2.59
							c0.235-1.195,1.395-1.977,2.59-1.733c15.888,3.155,32.881,4.754,50.508,4.754c27.655,0,53.667-3.917,75.229-11.328
							c1.154-0.4,2.405,0.218,2.801,1.367c0.396,1.152-0.215,2.407-1.367,2.801C703.713,2139.606,677.203,2143.607,649.068,2143.607
							z"/>
						<path style="fill:#84524D;" d="M562.723,2128.147c-0.291,0-0.588-0.058-0.872-0.181
							c-23.921-10.337-37.094-24.309-37.094-39.342c0-9.777,5.704-19.322,16.497-27.605c0.965-0.743,2.353-0.558,3.09,0.407
							c0.743,0.965,0.56,2.349-0.407,3.09c-9.663,7.417-14.771,15.754-14.771,24.109c0,13.164,12.228,25.698,34.433,35.294
							c1.117,0.482,1.632,1.781,1.15,2.898C564.389,2127.65,563.578,2128.147,562.723,2128.147z"/>
						<path style="fill:#84524D;" d="M581.492,2046.862c-0.958,0-1.841-0.629-2.119-1.595c-0.336-1.169,0.338-2.392,1.509-2.728
							c13.255-3.813,27.851-6.442,43.384-7.818c1.197-0.093,2.282,0.788,2.39,2.002c0.108,1.212-0.788,2.282-2.002,2.39
							c-15.251,1.35-29.569,3.927-42.553,7.663C581.899,2046.834,581.692,2046.862,581.492,2046.862z"/>
						<path style="fill:#84524D;" d="M756.355,2116.051c-0.65,0-1.294-0.286-1.729-0.835c-0.758-0.954-0.596-2.34,0.357-3.096
							c9.149-7.256,13.985-15.38,13.985-23.495c0-23.96-40.488-44.811-96.269-49.58c-1.214-0.103-2.112-1.171-2.009-2.384
							c0.101-1.212,1.197-2.155,2.383-2.009c59.059,5.049,100.304,27.244,100.304,53.973c0,9.51-5.413,18.829-15.656,26.949
							C757.318,2115.896,756.835,2116.051,756.355,2116.051z"/>
					</g>
				</g>
				<g>
					<path style="fill:#EFBC73;" d="M752.335,947.75v550.353c0,123.87,105.181,227.348,239.692,230.631
						c6.298-2.959,7.873,0.061,7.217,1.614c-49.634,118.292-173.142,198.051-319.903,198.051
						c-190.261,0-344.506-141.131-344.506-315.234l4.741-667.43L752.335,947.75z"/>
					<path style="fill:#E0AA63;" d="M994.704,1727.855c-43.341,34.524-93.559,60.974-147.49,71.485
						c-53.931,10.511-111.697,4.334-160.047-22.307c-69.046-38.044-116.776-112.618-131.075-191.598
						c-37.642-207.919,62.674-638.779,62.674-638.779s218.872,0.61,218.871,0.619c-31.983,168.308-129.332,464.766-51.07,653.599
						C817.87,1676.402,914.81,1722.197,994.704,1727.855z"/>
				</g>
			</g>
			<g>
				<g>
					<g>
						<path style="fill:#EFBC73;" d="M1139.423,2148.778c-1.162-16.776-5.097-43.583-19.345-72.83
							c-14.704-30.182-33.36-48.528-44.382-59.175c-59.014-57.006-142.869-75.643-170.585-80.919
							c-10.362,5.508-21.986,13.446-34.527,23.312c-18.162,14.288-38.121,33.841-45.313,54.895
							c23.776,23.776,78.041,77.022,159.387,108.543C1015.347,2134.496,1068.784,2150.618,1139.423,2148.778z"/>
						<path style="fill:#9E6C5A;" d="M1097.108,1925.496l-75.223,74.23c-13.047,12.875-32.345,17.172-49.559,10.873
							c-12.556-4.595-27.576-11.751-42.26-22.795c-20.491-15.41-24.702-44.512-9.809-65.382l54.193-75.939L1097.108,1925.496z"/>
					</g>
					<g>
						<path style="fill:#EFBC73;" d="M1561.665,1972.76c20.566-12.55,51.693-27.968,91.987-35.657
							c74.995-14.311,135.967,6.887,162.294,17.936c-27.047,29.787-58.678,61.37-95.376,93.111
							c-54.827,47.423-108.272,84.224-155.722,112.638c-26.231-9.063-43.463-21.518-63.836-41.881
							c-21.688-21.676-41.053-43.154-34.275-73.932C1475.103,2006.993,1513.879,1976.133,1561.665,1972.76z"/>
						<path style="fill:#9E6C5A;" d="M1567.189,1954.03l-90.5-128.671l-139.43,116.469c0,0,80.253,66.078,130.772,102.612
							c14.911,10.783,34.81,11.647,50.53,2.081c12.653-7.7,28.223-18.749,43.293-33.582
							C1577.792,1997.25,1580.055,1972.323,1567.189,1954.03z"/>
					</g>
					<path style="fill:#8B865C;" d="M1104.219,1952.188L931.488,1848.17l201.347-348.118h144.441
						c71.47,0,111.843,82.027,68.248,138.661L1104.219,1952.188z"/>
					<g>
						<path style="fill:#8B865C;" d="M1521.84,1843.203l-160.831,143.232c0,0-134.072-101.802-211.644-213.971
							c-5.154-7.452-13.579-11.959-22.64-11.959H773.003c-115.769,0-193.942-118.215-148.617-224.742l15.193-35.709h511.104
							c50.837,0,99.584,20.117,135.644,55.951C1343.068,1612.389,1432.575,1710.096,1521.84,1843.203z"/>
						<path style="fill:#363E44;" d="M1370.979,1648.694c-0.614,0-1.225-0.256-1.66-0.754
							c-27.905-31.946-56.35-62.351-84.545-90.374c-28.927-28.745-65.52-47.139-105.821-53.196
							c-1.204-0.181-2.035-1.305-1.854-2.508c0.183-1.204,1.309-2.009,2.508-1.854c41.235,6.199,78.676,25.02,108.275,54.432
							c28.269,28.094,56.785,58.576,84.756,90.598c0.801,0.917,0.708,2.31-0.209,3.111
							C1372.012,1648.515,1371.493,1648.694,1370.979,1648.694z"/>
						<path style="fill:#363E44;" d="M1257.827,1898.88c-0.551,0-1.105-0.207-1.531-0.62
							c-45.216-43.683-81.802-85.585-108.745-124.544c-4.767-6.892-12.553-11.007-20.827-11.007h-122.482
							c-1.219,0-2.205-0.986-2.205-2.205c0-1.219,0.986-2.205,2.205-2.205h122.482c9.724,0,18.864,4.825,24.453,12.91
							c26.776,38.72,63.175,80.398,108.181,123.881c0.876,0.844,0.9,2.241,0.054,3.116
							C1258.981,1898.654,1258.404,1898.88,1257.827,1898.88z"/>
					</g>
				</g>
				<g>
					
						<rect x="988.802" y="1252.09" transform="matrix(-0.7071 -0.7071 0.7071 -0.7071 984.6176 3040.5791)" style="fill:#FFFFFF;" width="266.461" height="128.558"/>
					<g>
						<path style="fill:#9E6C5A;" d="M1128.166,1347.747c0,0,31.753-38.965,31.754-38.967
							c55.894-84.273,93.934-145.134,106.416-163.462c1.307-1.919,3.599-5.317,7.663-8.762
							c15.059-12.762,30.318-5.708,52.276-11.902c24.914-7.028,34.964-25.091,40.436-21.382c3.806,2.58,1.934,10.461-7.429,23.837
							c8.281-9.344,20.068-21.525,25.219-16.933c5.664,5.62-6.501,21.558-14.331,30.841c9.478-11.236,17.879-14.375,20.113-11.099
							c3.516,5.156-1.804,15.58-14.906,29.943c11.817-7.391,15.786-7.421,17.055-4.044c2.316,6.166-8.678,17.771-19.969,26.542
							c-12.712,9.873-25.996,13.12-34.42,14.969c-0.002,0-0.004,0.002-0.004,0.002c-33.028,63.084-73.908,131.409-96.69,184.224
							C1226.827,1415.214,1131.752,1403.092,1128.166,1347.747z"/>
						<path style="fill:#9E6C5A;" d="M1307.46,1135.033c12.764-22.207,12.662-32.922,9.078-34.832
							c-6.026-3.213-24.684,11.286-47.427,41.391C1279.959,1140.723,1296.612,1135.903,1307.46,1135.033z"/>
						<path style="fill:#363E44;" d="M1158.918,1311.423c-0.418,0-0.842-0.119-1.217-0.368c-1.014-0.672-1.292-2.039-0.618-3.055
							c7.435-11.214,15.149-22.91,23.232-35.236c0.667-1.019,2.037-1.303,3.051-0.635c1.018,0.667,1.303,2.035,0.635,3.051
							c-8.087,12.335-15.806,24.036-23.245,35.258C1160.332,1311.076,1159.632,1311.423,1158.918,1311.423z"/>
						<g>
							<path style="fill:#363E44;" d="M1301.893,1179.541c-0.373,0-0.749-0.095-1.096-0.293c-1.055-0.605-1.421-1.953-0.814-3.01
								c2.414-4.209,6.907-10.042,14.596-13.924c10.884-5.495,21.396-3.507,25.411-2.396c1.173,0.325,1.863,1.539,1.537,2.713
								c-0.327,1.176-1.552,1.854-2.713,1.537c-3.52-0.977-12.738-2.719-22.246,2.082c-6.716,3.391-10.645,8.496-12.762,12.185
								C1303.4,1179.142,1302.657,1179.541,1301.893,1179.541z"/>
							<path style="fill:#363E44;" d="M1285.792,1133.156c-0.952,0-1.828-0.618-2.112-1.576c-0.349-1.167,0.316-2.394,1.483-2.741
								c5.618-1.675,11.412-1.966,17.546-2.271c2.806-0.142,5.706-0.286,8.72-0.571c1.221-0.093,2.289,0.777,2.403,1.99
								c0.112,1.214-0.777,2.289-1.99,2.403c-3.111,0.291-6.059,0.439-8.912,0.581c-5.863,0.293-11.399,0.571-16.51,2.093
								C1286.212,1133.125,1285.998,1133.156,1285.792,1133.156z"/>
							<path style="fill:#363E44;" d="M1339.078,1140.935c-0.928,0-1.794-0.59-2.097-1.522c-0.377-1.156,0.256-2.401,1.415-2.78
								c2.836-0.924,5.594-2.115,8.201-3.54c3.783-2.067,7.286-4.642,10.415-7.656c0.879-0.844,2.274-0.818,3.118,0.056
								c0.846,0.879,0.82,2.274-0.056,3.118c-3.413,3.288-7.235,6.098-11.362,8.352c-2.844,1.555-5.854,2.855-8.951,3.865
								C1339.534,1140.901,1339.304,1140.935,1339.078,1140.935z"/>
							<path style="fill:#363E44;" d="M1351.14,1153.341c-0.928,0-1.794-0.59-2.097-1.522c-0.377-1.156,0.256-2.401,1.415-2.78
								c2.833-0.924,5.594-2.114,8.201-3.54c3.789-2.069,7.295-4.646,10.415-7.656c0.878-0.844,2.271-0.818,3.118,0.056
								c0.846,0.876,0.82,2.272-0.056,3.118c-3.404,3.283-7.228,6.093-11.362,8.354c-2.847,1.555-5.859,2.853-8.951,3.863
								C1351.596,1153.307,1351.366,1153.341,1351.14,1153.341z"/>
							<path style="fill:#363E44;" d="M1355.556,1173.926c-0.928,0-1.791-0.59-2.095-1.52c-0.379-1.156,0.252-2.403,1.41-2.78
								c2.842-0.93,5.605-2.121,8.206-3.544c3.785-2.069,7.288-4.644,10.413-7.654c0.878-0.844,2.272-0.818,3.118,0.056
								c0.846,0.878,0.82,2.274-0.056,3.118c-3.408,3.283-7.23,6.093-11.36,8.352c-2.84,1.55-5.85,2.851-8.951,3.863
								C1356.012,1173.891,1355.782,1173.926,1355.556,1173.926z"/>
						</g>
						<path style="fill:#9E6C5A;" d="M1150.214,1321.29l-80.843-54.386l-33.808,136.7c28.16,10.994,72.769,15.66,139.639,11.758
							l58.795-22.048L1150.214,1321.29z"/>
					</g>
					<path style="fill:#D87355;" d="M1014.526,1493.724c0,0-75.264,197.389-447.43,113.087l189.642-394.845
						c20.081-41.811,62.356-68.404,108.739-68.404h135.563c67.58,0,114.751,66.964,91.997,130.598L1014.526,1493.724z"/>
					<path style="fill:#9E6C5A;" d="M1221.841,1459.742l-19.37-19.577c-28.78-29.087-67.999-45.454-108.917-45.454h-212.56
						c-8.923,0-14.685-9.44-10.607-17.376l15.344-29.864H714.719l-25.239,52.242c-24.806,51.346,12.602,110.965,69.627,110.965
						h475.543L1221.841,1459.742z"/>
					<path style="fill:#363E44;" d="M900.019,1349.676h-83.596c-1.219,0-2.205-0.986-2.205-2.205c0-1.219,0.986-2.205,2.205-2.205
						h82.121l50.061-121.007c0.467-1.126,1.759-1.656,2.879-1.195c1.126,0.465,1.66,1.755,1.195,2.879l-50.622,122.37
						C901.716,1349.137,900.911,1349.676,900.019,1349.676z"/>
					<g>
						<polygon style="fill:#FFFFFF;" points="1206.4,1482.43 958.774,1482.43 958.774,1492.172 1214.586,1499.825 						"/>
						<path style="fill:#363E44;" d="M1344.796,1510.57H1111.75l104.371-223.067h256.834l-94.29,201.521
							C1372.514,1502.17,1359.31,1510.57,1344.796,1510.57z"/>
						<path style="fill:#363E44;" d="M958.774,1488.175c0,12.428,10.075,22.503,22.503,22.503h214.89l10.529-22.503H958.774z"/>
						
							<ellipse transform="matrix(0.3827 -0.9239 0.9239 0.3827 -474.4035 2064.5425)" style="fill:#F2E6DC;" cx="1307.701" cy="1387.269" rx="15.349" ry="15.349"/>
					</g>
					<path style="fill:#363E44;" d="M1167.855,1399.928c-0.024,0-0.045,0-0.069,0l-146.989-4.41
						c-1.217-0.037-2.175-1.053-2.138-2.272c0.039-1.217,1.1-2.127,2.271-2.138l146.989,4.41c1.216,0.037,2.175,1.053,2.138,2.272
						C1170.021,1398.985,1169.042,1399.928,1167.855,1399.928z"/>
				</g>
				<g>
					<polygon style="fill:#9E6C5A;" points="917.894,1152.28 1000.198,1168.643 1044.676,1091.604 975.863,1051.875 					"/>
					<path style="fill:#9E6C5A;" d="M913.31,1151.461c-2.034,10.031,20.302,23.026,49.889,29.024
						c29.587,5.998,55.22,2.729,57.254-7.303c2.034-10.031-20.303-23.026-49.889-29.024
						C940.977,1138.16,915.343,1141.43,913.31,1151.461z"/>
					<g>
						<path style="fill:#9E6C5A;" d="M1079.131,1103.352c-10.517,17.107-65.432,6.155-65.432,6.155l-46.011-40.583
							c-11.055-25.998,1.059-56.035,27.057-67.09c25.998-11.055,56.035,1.059,67.09,27.057
							C1061.834,1028.891,1089.844,1085.927,1079.131,1103.352z"/>
						<path style="fill:#9E6C5A;" d="M1061.688,1043.569c0,0,19.085,8.219,19.936,12.17c1.015,4.716-12.562,13.629-12.562,13.629
							S1062.053,1043.453,1061.688,1043.569z"/>
						<g>
							<path style="fill:#FFFFFF;" d="M1018.35,1059.618c0,0,6.079-7.59,15.579-11.629c2.021-0.859,5.086,16.936,2.777,16.836
								C1026.558,1064.386,1018.35,1059.618,1018.35,1059.618z"/>
							<g>
								<defs>
									<path id="SVGID_1_" d="M1018.35,1059.618c0,0,8.94-11.163,22.081-13.617c13.142-2.454,25.508,4.729,25.508,4.729
										s-8.94,11.163-22.081,13.617C1030.716,1066.802,1018.35,1059.618,1018.35,1059.618z"/>
								</defs>
								<clipPath id="SVGID_00000056428113198421929390000006863575079238804664_">
									<use xlink:href="#SVGID_1_"  style="overflow:visible;"/>
								</clipPath>
								<path style="clip-path:url(#SVGID_00000056428113198421929390000006863575079238804664_);fill:#363E44;" d="
									M1034.154,1047.402c3.611-8.955,13.799-13.287,22.754-9.675c8.955,3.611,13.287,13.799,9.675,22.754
									c-3.611,8.955-13.799,13.287-22.754,9.675C1034.874,1066.545,1030.542,1056.358,1034.154,1047.402z"/>
							</g>
						</g>
						<path style="fill:#363E44;" d="M1058.071,1085.25c-0.534,0-1.072-0.047-1.608-0.14c-3.486-0.611-6.386-3.215-7.383-6.632
							c-0.34-1.169,0.329-2.394,1.499-2.735c1.173-0.342,2.392,0.33,2.734,1.499c0.53,1.817,2.065,3.2,3.91,3.523
							c1.923,0.332,3.871-0.495,4.976-2.119c0.689-1.003,2.058-1.268,3.064-0.583c1.008,0.687,1.268,2.058,0.583,3.064
							C1064.074,1083.73,1061.139,1085.25,1058.071,1085.25z"/>
						<path style="fill:#363E44;" d="M1048.311,1115.986c-16.853,0-33.735-3.316-34.698-3.507c-1.195-0.237-1.97-1.4-1.731-2.592
							c0.237-1.195,1.404-1.979,2.592-1.731c0.317,0.063,31.694,6.216,50.829,1.824c1.182-0.271,2.371,0.467,2.642,1.656
							c0.274,1.186-0.469,2.369-1.656,2.642C1060.85,1115.526,1054.581,1115.986,1048.311,1115.986z"/>
					</g>
					<path style="fill:#363E44;" d="M1036.805,1011.125c8.737-0.855,16.192-6.714,19.022-15.023
						c5.054-14.839,10.644-38.124,1.783-51.017c-13.699-19.932-39.719,19.719-73.265,24.674
						c-33.546,4.956-54.378,12.312-53.863,38.107c0.514,25.795,22.834,35.703,22.834,35.703s-15.155-5.221-19.324,15.593
						c-4.169,20.813,62.231,18.7,62.231,18.7l7.456-8.493l-9.198-20.713c-6.995-15.752,3.483-33.73,20.636-35.408L1036.805,1011.125
						z"/>
					<path style="fill:#9E6C5A;" d="M955.822,1072.994c0,11.298,9.159,20.457,20.457,20.457c11.298,0,20.456-9.159,20.456-20.457
						c0-11.298-9.159-20.457-20.456-20.457C964.981,1052.537,955.822,1061.696,955.822,1072.994z"/>
				</g>
			</g>
		</g>
	</g>
</g>
</svg>
